<?xml version="1.0" encoding="UTF-8"?>
<svg id="Camada_2" data-name="Camada 2" xmlns="http://www.w3.org/2000/svg" viewBox="0 0 170.7 74.68">
  <defs>
    <style>
      .cls-1 {
        fill: #6a4278;
      }

      .cls-2 {
        fill: none;
        stroke: #bdd363;
        stroke-miterlimit: 10;
        stroke-width: 2px;
      }
    </style>
  </defs>
  <g id="Camada_1-2" data-name="Camada 1">
    <g>
      <g>
        <path class="cls-1" d="M111.88,70.12h-.03c-.51.85-1.43,1.23-2.41,1.23-2.17,0-3.47-1.61-3.47-3.69s1.39-3.69,3.39-3.69c1.32,0,2.02.62,2.39,1.07h.04v-4.93h1.76v11.07h-1.67v-1.05ZM109.78,69.77c1.29,0,2.06-1.01,2.06-2.11s-.77-2.11-2.06-2.11-2.06,1.01-2.06,2.11.78,2.11,2.06,2.11Z"/>
        <path class="cls-1" d="M119.93,70.21h-.04c-.5.79-1.32,1.14-2.25,1.14-1.3,0-2.56-.72-2.56-2.11,0-2.28,2.66-2.45,4.42-2.45h.44v-.19c0-.86-.67-1.32-1.61-1.32-.73,0-1.41.29-1.87.73l-.92-.92c.78-.79,1.87-1.13,2.99-1.13,3,0,3,2.17,3,3.16v4.04h-1.58v-.97ZM119.83,68.03h-.37c-.97,0-2.63.07-2.63,1.08,0,.64.66.92,1.23.92,1.2,0,1.77-.63,1.77-1.61v-.39Z"/>
        <path class="cls-1" d="M124.29,60.71c.64,0,1.14.45,1.14,1.05s-.5,1.05-1.14,1.05-1.11-.5-1.11-1.05.47-1.05,1.11-1.05ZM123.43,64.15h1.76v7.03h-1.76v-7.03Z"/>
        <path class="cls-1" d="M127.24,60.11h1.76v11.07h-1.76v-11.07Z"/>
        <path class="cls-1" d="M130.06,64.15h1.93l1.96,4.87h.03l1.76-4.87h1.83l-3.32,8.53c-.51,1.32-1.13,2.01-2.68,2.01-.45,0-.91-.06-1.35-.18l.22-1.58c.28.1.59.18.89.18.86,0,1.1-.31,1.39-1.04l.34-.83-3-7.08Z"/>
        <path class="cls-1" d="M147.75,66.25c-.41-.42-.86-.7-1.33-.7-1.29,0-2.06,1.01-2.06,2.11s.78,2.11,2.06,2.11c.54,0,1.04-.23,1.36-.66l1.17,1.26c-.72.72-1.92.98-2.53.98-2.12,0-3.82-1.48-3.82-3.69s1.7-3.69,3.82-3.69c.89,0,1.87.32,2.55,1.07l-1.22,1.22Z"/>
        <path class="cls-1" d="M154.39,70.21h-.04c-.5.79-1.32,1.14-2.25,1.14-1.3,0-2.56-.72-2.56-2.11,0-2.28,2.66-2.45,4.42-2.45h.44v-.19c0-.86-.67-1.32-1.61-1.32-.73,0-1.41.29-1.87.73l-.92-.92c.78-.79,1.87-1.13,2.99-1.13,3,0,3,2.17,3,3.16v4.04h-1.58v-.97ZM154.29,68.03h-.37c-.97,0-2.63.07-2.63,1.08,0,.64.66.92,1.23.92,1.2,0,1.77-.63,1.77-1.61v-.39Z"/>
        <path class="cls-1" d="M157.86,64.15h1.76v1.11h.03c.38-.81,1.16-1.29,2.08-1.29.22,0,.42.04.63.1v1.7c-.29-.07-.57-.13-.85-.13-1.65,0-1.89,1.39-1.89,1.77v3.76h-1.76v-7.03Z"/>
        <path class="cls-1" d="M164.7,68.27c.12,1.04.91,1.67,1.89,1.67.88,0,1.45-.41,1.89-.95l1.26.95c-.82,1.01-1.86,1.41-2.97,1.41-2.12,0-3.82-1.48-3.82-3.69s1.7-3.69,3.82-3.69c1.96,0,3.29,1.38,3.29,3.82v.48h-5.36ZM168.3,66.96c-.01-1.02-.69-1.67-1.79-1.67-1.04,0-1.68.66-1.82,1.67h3.6Z"/>
      </g>
      <g>
        <path class="cls-1" d="M.1.26c3.85-.01,7.71-.02,11.56-.04.65,0,.67.38.66.84-.02.42.09.84-.6.88-1.86.11-2.29.6-2.29,2.46,0,14.96,0,29.93,0,44.89,0,1.72.57,2.34,2.26,2.49.45.04.91.06,1.37.06,4.13,0,8.27.08,12.4-.04,1.77-.05,3.57-.4,5.3-.83,1.64-.41,2.9-1.5,3.87-2.91.51-.74.52-.74,1.6-.65-.17.87-.35,1.72-.52,2.57-.19.94-.42,1.88-.56,2.83-.08.53-.34.68-.81.63-.08,0-.15,0-.23,0-11.08,0-22.17,0-33.25,0-.25,0-.51-.02-.76-.04,0-.51,0-1.01,0-1.52.12-.03.25-.06.37-.07,2.26-.29,2.57-.63,2.57-2.88,0-14.76-.01-29.52.02-44.28,0-2.11-.48-2.75-2.8-2.72-.05,0-.1,0-.15.01,0-.56,0-1.12,0-1.67Z"/>
        <path class="cls-1" d="M85.46,51.91c1.15,0,2.27.03,3.38-.01.57-.02.68.23.68.72,0,.49-.06.82-.69.82-2.92-.02-5.84,0-8.75-.01-.7,0-.76-.2-.55-1.47.31-.03.63-.04.95-.1,1.94-.33,3.22-1.45,3.99-3.25,1.71-4.01,3.45-8,5.17-12,4.15-9.6,8.29-19.2,12.45-28.8.24-.56.28-1.02,0-1.57-.33-.65-.62-1.34-.86-2.03-.07-.19-.01-.58.13-.68,1.61-1.18,3.25-2.33,4.97-3.55.2.47.37.88.54,1.3,6.41,15.59,12.81,31.19,19.23,46.78.84,2.03,2.35,3.35,4.55,3.73.73.13.54.59.57,1.01.04.47-.2.62-.64.62-4.47,0-8.93,0-13.4,0-.47,0-.65-.21-.59-.65.05-.38-.23-.93.51-.95.15,0,.3-.03.45-.05,1.88-.19,2.56-1.24,1.86-2.98-2.03-5.05-4.1-10.08-6.14-15.13-.17-.41-.38-.58-.84-.58-6.17.01-12.33.01-18.5,0-.46,0-.67.19-.84.59-2.54,5.99-5.09,11.97-7.64,17.96-.02.04,0,.1,0,.26ZM94.52,30.56h17.5c-2.85-6.92-5.65-13.74-8.46-20.57-.07.01-.14.03-.21.04-2.93,6.8-5.85,13.6-8.83,20.53Z"/>
        <path class="cls-1" d="M75.7,6.25c-.76.21-1.23.09-1.65-.64-1.13-1.98-3.06-2.8-5.18-3.25-2.77-.58-5.59-.54-8.4-.54-3.58,0-7.15.05-10.73.07-1.08,0-1.08,0-1.08,1.07,0,6.93,0,13.85,0,20.78q0,1.04,1.05,1.04c3.4,0,6.8.02,10.2,0,1.66-.01,3.28-.29,4.76-1.11.93-.52,1.28-.99,1.48-2.01h1.16v8.18h-1.2c.08-1.39-.86-2.07-1.96-2.46-1.11-.39-2.29-.75-3.45-.78-3.78-.1-7.56-.03-11.34-.05-.53,0-.7.16-.7.69.01,7.97.01,15.93,0,23.9,0,.54.2.71.71.7,1.37-.02,2.74,0,4.11,0,4.01,0,8.02.04,12.02-.01,2.28-.03,4.55-.24,6.74-.99,1.7-.59,3.15-1.53,4.11-3.09.42-.69.98-.25,1.58-.45-.36,1.63-.69,3.1-1.03,4.58-.36,1.56-.36,1.56-1.99,1.56-11.49,0-22.99,0-34.48,0-1.05,0-1.03,0-1.01-1.06,0-.48.2-.58.64-.62,1.71-.12,2.34-.8,2.34-2.52,0-14.94,0-29.89,0-44.83,0-1.92-.53-2.44-2.42-2.5-.15,0-.3-.02-.43-.03-.04-.07-.09-.11-.09-.15-.09-1.85-.09-1.48,1.38-1.48,10.86-.01,21.72,0,32.58-.03.78,0,1.12.21,1.25.99.3,1.69.68,3.36,1.03,5.05Z"/>
        <path class="cls-1" d="M170.7,6.26c-.77.19-1.24.09-1.66-.65-1.11-1.95-3.01-2.8-5.1-3.23-3.02-.62-6.09-.56-9.16-.52-3.3.05-6.6.03-9.89.04-.33,0-.65,0-1.06,0-.02.33-.04.6-.05.87,0,7.05.01,14.11-.02,21.16,0,.74.25.88.91.87,3.45-.03,6.9,0,10.35-.02,1.69-.01,3.33-.3,4.82-1.17.92-.53,1.2-.96,1.31-1.94h1.15v8.18h-1.06c-.3-2.34-2.25-2.62-4.02-3.1-.55-.15-1.15-.18-1.73-.18-3.68-.02-7.36,0-11.04,0-.2,0-.39.02-.68.04v.93c0,7.23,0,14.46,0,21.69,0,1.94.64,2.59,2.6,2.61.56,0,.95,0,.94.78,0,.71-.26.84-.89.84-3.65-.02-7.31,0-10.96-.01-.95,0-1.03-.11-.97-1.06.03-.41.2-.57.6-.62,1.78-.21,2.29-.76,2.29-2.55,0-14.94,0-29.89,0-44.83,0-1.86-.41-2.29-2.32-2.44-.72-.05-.54-.52-.56-.91-.03-.44,0-.84.61-.8.18.01.36,0,.53,0,10.94,0,21.87,0,32.81-.02.83,0,1.13.23,1.26,1.05.26,1.67.65,3.32.99,5Z"/>
      </g>
      <line class="cls-2" y1="66.4" x2="102.65" y2="66.4"/>
    </g>
  </g>
</svg>